<svg xmlns="http://www.w3.org/2000/svg"><defs><pattern id="a" width="50" height="50" patternTransform="rotate(25)scale(2)" patternUnits="userSpaceOnUse"><rect width="100%" height="100%" fill="#f7f2f9"/><path fill="#e5e1e8" fill-opacity=".55" d="M31.875 0c0 .885-.165 1.797-.508 2.617-.347.83-.896 1.583-1.523 2.227-.527.54-1.144 1.026-1.836 1.328-1.095.478-2.358.405-3.516.703-.754.194-1.547.323-2.226.703-.693.388-1.328.912-1.797 1.563-.756 1.214-1.03 2.15-1.094 3.476-.031 1.227-.498 2.465-.977 3.399-.466.773-1.118 1.443-1.835 1.992a6.7 6.7 0 0 1-1.954 1.015c-.7.232-1.462.213-2.187.352-.76.146-1.56.189-2.266.508a5.8 5.8 0 0 0-1.875 1.367 6 6 0 0 0-1.172 2.07 5.5 5.5 0 0 0-.195 2.344q.157 1.171.742 2.148a5.7 5.7 0 0 0 1.485 1.68c.473.368 1.033.63 1.601.82.564.19 1.173.204 1.758.313.874.162 1.794.172 2.617.508.81.33 1.555.842 2.188 1.445.526.501.95 1.107 1.289 1.758q.508.977.703 2.07.195 1.29-.078 2.617a7.3 7.3 0 0 1-1.055 2.383 6.8 6.8 0 0 1-2.031 1.914c-1.234.697-2.193.956-3.516 1.016-1.234.046-2.539.483-3.398 1.094A5.2 5.2 0 0 0 7.46 47.5q-.547 1.015-.586 2.5H0v-6.875a6.3 6.3 0 0 0 2.305-.508 5.5 5.5 0 0 0 1.914-1.406 5.65 5.65 0 0 0 1.133-1.992 5.8 5.8 0 0 0 .234-2.305 6.1 6.1 0 0 0-.664-2.187 5.7 5.7 0 0 0-1.524-1.72 5.7 5.7 0 0 0-1.601-.859C1.222 31.95 0 31.836 0 31.836V18.125q1.485-.039 2.617-.664a5.47 5.47 0 0 0 2.188-2.031q.82-1.328.82-2.852a6.3 6.3 0 0 1 .508-2.656 6.9 6.9 0 0 1 1.445-2.266 7.1 7.1 0 0 1 2.266-1.523c.86-.365 1.77-.344 2.656-.508.65-.12 1.333-.121 1.953-.352a5.4 5.4 0 0 0 1.719-1.015c.596-.533 1.112-1.188 1.445-1.914A5.7 5.7 0 0 0 18.125 0m0 50q0-1.72.86-3.32a6.17 6.17 0 0 1 2.304-2.461 6.2 6.2 0 0 1 2.383-.977 6.3 6.3 0 0 1 2.617 0 6.9 6.9 0 0 1 2.422.938 6.9 6.9 0 0 1 1.875 1.797 7 7 0 0 1 .977 1.914A7.1 7.1 0 0 1 31.875 50m11.25 0c0-.625-.084-1.221-.273-1.797a5.1 5.1 0 0 0-.82-1.562c-.493-.623-1.068-1.172-1.798-1.563a5.8 5.8 0 0 0-2.265-.703l-.625-.04-.625-.038a6.6 6.6 0 0 1-2.227-.625 7.3 7.3 0 0 1-1.914-1.367 6.45 6.45 0 0 1-1.445-2.227 6.8 6.8 0 0 1-.508-2.578 5.6 5.6 0 0 0-.312-1.836 5.6 5.6 0 0 0-.899-1.64q-.743-1.016-1.953-1.602A5.75 5.75 0 0 0 25 31.875a6.6 6.6 0 0 1-3.125-.781q-1.524-.781-2.46-2.11a6.4 6.4 0 0 1-1.095-2.421 7 7 0 0 1-.117-2.657 8 8 0 0 1 .664-2.031 7.1 7.1 0 0 1 1.29-1.758 6.9 6.9 0 0 1 2.187-1.484c.808-.338 1.702-.484 2.578-.508a6.7 6.7 0 0 1 2.226.312c.715.232 1.402.59 1.993 1.055a7.3 7.3 0 0 1 1.757 1.992c.451.763.769 1.615.899 2.5l.078.86.04.82q.195 1.446 1.015 2.617a5.9 5.9 0 0 0 1.68 1.524c.64.381 1.373.624 2.109.742a5.4 5.4 0 0 0 1.797-.04c.583-.105 1.17-.28 1.68-.585.758-.455 1.456-1.065 1.952-1.797 1.305-2.082.736-4.545 1.914-6.602a7.3 7.3 0 0 1 1.797-2.03c.579-.452 1.25-.782 1.953-1.016L50 18.125v13.71a6.2 6.2 0 0 0-2.344.548 5.25 5.25 0 0 0-1.914 1.445 5.2 5.2 0 0 0-1.133 2.031 5.6 5.6 0 0 0-.195 2.305c.088.736.338 1.464.703 2.11a5.9 5.9 0 0 0 1.406 1.64 5.5 5.5 0 0 0 1.641.899c.586.203 1.836.312 1.836.312V50m0-43.125a6.5 6.5 0 0 1-2.617-.547 6.2 6.2 0 0 1-2.227-1.484 6.65 6.65 0 0 1-1.523-2.227A7.1 7.1 0 0 1 43.125 0H50M36.29 5.703a6.8 6.8 0 0 1 2.616.04c.86.185 1.692.562 2.422 1.054a7 7 0 0 1 1.875 1.836c.487.713.809 1.544 1.016 2.383.153.621.2 1.275.156 1.914a6.1 6.1 0 0 1-.43 1.914c-.372.897-.879 1.77-1.562 2.46-.688.697-1.554 1.236-2.461 1.602-.762.308-1.6.469-2.422.469a6.8 6.8 0 0 1-2.422-.469 7.1 7.1 0 0 1-2.187-1.328 7.1 7.1 0 0 1-1.563-2.07c-.33-.655-.526-1.383-.625-2.11-.098-.722-.106-1.472.04-2.187a7.2 7.2 0 0 1 .976-2.422c.47-.737 1.079-1.414 1.797-1.914a7 7 0 0 1 2.773-1.172M0 0h6.875q0 1.328-.508 2.617a6.65 6.65 0 0 1-1.523 2.227 6.2 6.2 0 0 1-2.227 1.484A6.5 6.5 0 0 1 0 6.875z"/></pattern></defs><rect width="800%" height="800%" fill="url(#a)" transform="translate(0 -44)"/></svg>
